<?xml version="1.0" standalone="no"?>
<!DOCTYPE svg PUBLIC "-//W3C//DTD SVG 20010904//EN"
 "http://www.w3.org/TR/2001/REC-SVG-20010904/DTD/svg10.dtd">
<svg version="1.0" xmlns="http://www.w3.org/2000/svg"
 width="96.000000pt" height="96.000000pt" viewBox="0 0 96.000000 96.000000"
 preserveAspectRatio="xMidYMid meet">
<metadata>
Created by potrace 1.10, written by Peter Selinger 2001-2011
</metadata>
<g transform="translate(0.000000,96.000000) scale(0.100000,-0.100000)"
fill="#bd0250" stroke="none">
<path d="M482 821 c-83 -29 -122 -76 -122 -148 1 -111 142 -258 215 -225 l25
12 0 179 c0 168 -1 181 -19 191 -26 13 -37 13 -99 -9z m88 -186 c0 -187 1
-185 -77 -140 -89 53 -136 200 -80 253 30 28 85 51 125 52 l32 0 0 -165z"/>
<path d="M628 833 c-39 -10 -15 -21 45 -20 106 1 174 -51 224 -172 52 -128 9
-358 -90 -476 l-25 -30 -26 24 -25 24 19 38 c29 55 26 112 -5 144 -30 29 -61
32 -93 9 -32 -22 -40 -41 -53 -140 -17 -134 -17 -134 -88 -134 -80 0 -91 6
-91 44 0 39 -44 86 -80 86 -36 0 -80 -47 -80 -86 0 -20 -6 -34 -16 -38 -26
-10 -132 -7 -139 4 -4 6 -15 97 -26 202 -19 184 -19 195 -2 248 31 98 140 180
239 180 18 0 36 5 39 10 4 6 -9 10 -32 10 -124 0 -241 -92 -274 -215 -14 -49
21 -426 41 -450 16 -19 160 -21 178 -3 7 7 12 27 12 45 0 37 29 73 60 73 31 0
60 -36 60 -73 0 -18 5 -38 12 -45 18 -18 162 -16 178 3 7 8 19 63 27 123 13
90 19 110 40 130 29 27 44 28 74 4 29 -24 28 -80 -1 -128 -12 -19 -19 -41 -15
-51 9 -25 61 -64 77 -58 20 8 92 129 118 200 34 91 39 250 11 327 -54 143
-176 222 -293 191z"/>
</g>
</svg>
