<?xml version="1.0" encoding="utf-8"?>
<!-- Generator: Adobe Illustrator 24.0.0, SVG Export Plug-In . SVG Version: 6.00 Build 0)  -->
<svg version="1.1" xmlns="http://www.w3.org/2000/svg" xmlns:xlink="http://www.w3.org/1999/xlink" x="0px" y="0px"
	 viewBox="0 0 96 96" style="enable-background:new 0 0 96 96;" xml:space="preserve">
<style type="text/css">
	.st0{fill:#207E92;}
</style>
<g id="Layer_1">
	<g transform="translate(0.000000,96.000000) scale(0.100000,-0.100000)">
		<path class="st0" d="M452,828c-7-7-12-24-12-38c0-22-7-30-40-43l-40-15V460V188l39-15c33-13,40-21,43-46c5-50,29-56,93-22
			c56,30,74,52,33,40c-13-4-33-13-45-21c-33-21-63-18-63,5c0,11-4,23-10,26c-6,4-10,115-10,299c0,252,2,298,17,327c9,19,17,35,19,37
			c1,2,25-9,54-23s55-24,58-21c7,7,8,6-50,39C486,843,470,846,452,828z M410,459c0-171-3-258-10-254c-6,4-10,100-10,254
			c0,218,3,261,17,261C409,720,410,603,410,459z"/>
		<path class="st0" d="M216,784c-12-11-16-36-16-91c0-60-4-81-21-104c-26-37-50-37-92,1c-41,36-62,38-78,8c-9-19-9-21,2-10
			c20,18,35,15,72-18c45-39,68-38,106,5c29,33,31,41,31,111c0,88,9,97,68,64c22-12,46-20,53-18c11,4-87,68-104,68
			C234,800,224,793,216,784z"/>
		<path class="st0" d="M600,460V140l28,6c15,3,33,7,40,10c18,5,18,603,0,608c-7,3-25,7-40,10l-28,6V460z M650,460
			c0-180-4-280-10-280s-10,100-10,280s4,280,10,280S650,640,650,460z"/>
		<path class="st0" d="M690,745c0-2,17-13,38-24c80-41,146-105,185-181c31-60,37-67,37-43c0,59-109,187-198,232
			C712,749,690,755,690,745z"/>
		<path class="st0" d="M770,545c-26-32,13-81,48-59c22,14,27,41,12,59C814,564,786,564,770,545z M810,520c0-5-4-10-10-10
			c-5,0-10,5-10,10c0,6,5,10,10,10C806,530,810,526,810,520z"/>
		<path class="st0" d="M936,435c-29-75-45-101-91-148c-28-28-72-62-98-75c-47-23-68-42-47-42c25,0,97,46,148,93
			c67,64,105,126,100,164C944,452,943,453,936,435z"/>
		<path class="st0" d="M94,359c-30-33-51-41-75-29c-19,11-20,10-9-9c15-29,36-26,77,9c42,38,66,38,92,1c17-23,21-44,21-104
			c0-55,4-80,16-91c8-9,18-16,21-16c17,0,115,64,104,68c-7,2-31-6-53-18c-59-33-68-24-68,64c0,70-2,78-31,111
			C153,385,122,390,94,359z"/>
	</g>
</g>
<g id="Layer_2">
	<ellipse class="st0" cx="1" cy="50.1" rx="1" ry="10.2"/>
</g>
</svg>
