<?xml version="1.0" standalone="no"?>
<!DOCTYPE svg PUBLIC "-//W3C//DTD SVG 20010904//EN"
 "http://www.w3.org/TR/2001/REC-SVG-20010904/DTD/svg10.dtd">
<svg version="1.0" xmlns="http://www.w3.org/2000/svg"
 width="96.000000pt" height="96.000000pt" viewBox="0 0 96.000000 96.000000"
 preserveAspectRatio="xMidYMid meet">
<metadata>
Created by potrace 1.10, written by Peter Selinger 2001-2011
</metadata>
<g transform="translate(0.000000,96.000000) scale(0.100000,-0.100000)"
fill="#b27f00" stroke="none">
<path d="M260 898 c-25 -13 -55 -38 -67 -57 -40 -60 -41 -113 -3 -207 12 -27
10 -37 -14 -90 -57 -121 -44 -233 34 -309 50 -49 66 -38 17 13 -71 73 -86 165
-42 260 29 62 31 111 9 173 -46 131 59 242 199 208 26 -6 50 -9 53 -6 11 10
-38 29 -89 34 -41 3 -61 0 -97 -19z"/>
<path d="M451 867 c-11 -14 -20 -277 -9 -277 4 0 10 5 13 10 10 15 71 12 85
-5 31 -37 71 -3 89 75 19 83 -25 156 -116 190 -40 15 -53 17 -62 7z m91 -53
c47 -24 61 -56 56 -125 -5 -68 -20 -86 -52 -63 -11 8 -33 14 -48 14 l-28 0 0
101 c0 112 -1 110 72 73z"/>
<path d="M330 785 c-26 -32 13 -81 48 -59 34 22 22 74 -18 74 -10 0 -23 -7
-30 -15z m40 -25 c0 -5 -4 -10 -10 -10 -5 0 -10 5 -10 10 0 6 5 10 10 10 6 0
10 -4 10 -10z"/>
<path d="M440 573 c0 -4 90 -98 200 -208 110 -111 200 -206 200 -213 0 -15
-39 -40 -65 -42 -52 -5 -70 3 -129 60 -64 62 -88 70 -122 46 -26 -19 -13 -30
20 -15 24 12 30 9 90 -49 67 -65 96 -78 149 -68 38 7 80 46 75 70 -4 18 -371
401 -399 416 -10 6 -19 7 -19 3z"/>
<path d="M256 178 c-21 -30 -20 -54 4 -78 17 -17 33 -20 120 -20 87 0 103 3
120 20 25 25 25 55 0 80 -17 17 -33 20 -124 20 -97 0 -106 -2 -120 -22z m218
-14 c21 -8 21 -40 0 -48 -20 -8 -168 -8 -188 0 -19 7 -21 40 -3 47 18 8 172 8
191 1z"/>
</g>
</svg>
